<?xml version="1.0" encoding="utf-8"?>
<!-- Generator: Adobe Illustrator 24.1.0, SVG Export Plug-In . SVG Version: 6.00 Build 0)  -->
<svg version="1.1" id="お問い合わせ" xmlns="http://www.w3.org/2000/svg" xmlns:xlink="http://www.w3.org/1999/xlink" x="0px"
	 y="0px" viewBox="0 0 194.8 38.4" style="enable-background:new 0 0 194.8 38.4;" xml:space="preserve">
<style type="text/css">
	.st0{fill-rule:evenodd;clip-rule:evenodd;fill:#015DB2;}
	.st1{fill-rule:evenodd;clip-rule:evenodd;fill:#5E6465;}
	.st2{fill:#015DB2;}
</style>
<path id="_092-691-1031" class="st0" d="M41.7,28.2c-0.1-1.7,0.1-3.4,0.5-5c0.2-1,1.1-1.7,2.1-1.6c1-0.1,1.9,0.6,2.1,1.6
	c0.4,1.6,0.6,3.3,0.5,5c0.1,1.7-0.1,3.3-0.5,4.9c-0.2,1-1.1,1.7-2.1,1.7c-1,0-1.9-0.7-2.1-1.7C41.8,31.5,41.7,29.9,41.7,28.2
	L41.7,28.2L41.7,28.2z M44.4,18.5c-2.3,0-4,0.8-4.9,2.5c-1.1,2.2-1.6,4.7-1.4,7.2c-0.1,2.5,0.4,4.9,1.4,7.1c0.9,1.7,2.6,2.5,4.9,2.5
	s4-0.8,4.9-2.5c1.1-2.2,1.6-4.7,1.4-7.1c0.1-2.5-0.4-4.9-1.4-7.2C48.4,19.3,46.7,18.5,44.4,18.5C44.4,18.5,44.4,18.5,44.4,18.5z
	 M52.5,25.2c-0.2,3.1,2.1,5.7,5.1,6c0.2,0,0.3,0,0.5,0c0.9,0,1.7-0.2,2.5-0.6c0.4-0.3,0.8-0.6,1.1-1c0,1.1-0.2,2.2-0.5,3.2
	c-0.3,1.2-1.3,2-2.5,2c-0.5,0-1.1-0.2-1.5-0.5c-0.4-0.4-0.6-0.8-0.7-1.3h-3.6c0.1,1.4,0.8,2.8,1.9,3.6c1.1,0.8,2.4,1.3,3.7,1.2
	c2.9,0,4.9-1.4,6-4.3c0.6-1.8,0.9-3.7,0.9-5.7c0.1-1.9-0.2-3.8-0.9-5.6c-1.4-3.2-5.1-4.6-8.2-3.3c-0.7,0.3-1.4,0.8-2,1.4
	C53,21.7,52.4,23.4,52.5,25.2L52.5,25.2L52.5,25.2z M58.9,28.2c-0.8,0.1-1.5-0.2-2.1-0.8c-0.5-0.7-0.7-1.6-0.7-2.5
	c-0.1-1,0.3-2.1,1-2.8c0.5-0.4,1-0.5,1.6-0.5c0.8,0,1.5,0.3,2,0.9c0.5,0.7,0.8,1.6,0.7,2.5c0.1,1.1-0.4,2.1-1.2,2.8
	C59.8,28.1,59.4,28.2,58.9,28.2L58.9,28.2L58.9,28.2z M67,37.4h12.6v-3.2h-8.1c0.2-0.4,0.5-0.7,0.8-1c0.3-0.3,1-0.8,1.9-1.4l1.5-1
	c1-0.7,1.9-1.5,2.6-2.4c0.8-1.1,1.2-2.4,1.2-3.7c0.1-1.6-0.6-3.2-1.7-4.4c-1.3-1.1-2.9-1.7-4.7-1.6c-2.5,0-4.2,0.9-5.2,2.8
	c-0.6,1.2-0.9,2.5-0.9,3.9h3.5c0-0.8,0.1-1.6,0.4-2.3c0.8-1.2,2.4-1.6,3.6-0.9c0.2,0.1,0.4,0.2,0.5,0.4c0.4,0.6,0.7,1.3,0.6,2
	c0,1-0.4,2-1.1,2.7c-1,1-2.1,1.8-3.2,2.6c-1.6,1-2.8,2.3-3.7,4C67.3,34.8,67,36.1,67,37.4L67,37.4z M81.3,31.7h7.1v-3.5h-7.1V31.7z
	 M93.8,31.4c-0.1-1,0.3-2,1.1-2.7c0.5-0.4,1-0.6,1.6-0.6c0.7,0,1.4,0.3,1.9,0.9c0.6,0.7,0.8,1.6,0.8,2.5c0,0.9-0.2,1.7-0.7,2.4
	c-0.4,0.6-1.2,1-1.9,0.9c-0.8,0-1.5-0.3-2-1C94,33.2,93.7,32.3,93.8,31.4L93.8,31.4L93.8,31.4z M102.5,23.4
	c-0.1-1.4-0.7-2.7-1.7-3.6c-1.2-0.9-2.6-1.4-4.1-1.3c-1.1,0-2.1,0.3-3.1,0.8c-0.9,0.6-1.6,1.3-2.1,2.2c-0.7,1.2-1.1,2.6-1.2,4
	c-0.1,1.2-0.2,2.3-0.2,3.5c-0.1,2.1,0.4,4.1,1.3,6c1,1.9,3,3.1,5.1,3c1.8,0.1,3.6-0.6,4.8-2c1-1.3,1.6-3,1.5-4.6
	c0.1-1.6-0.5-3.1-1.6-4.3c-1.6-1.6-4-2.1-6.1-1.3c-0.6,0.3-1.1,0.7-1.6,1.2c0-1.1,0.2-2.2,0.6-3.3c0.3-1.2,1.3-2,2.5-2
	c0.7,0,1.4,0.3,1.8,0.9c0.2,0.3,0.3,0.6,0.3,1L102.5,23.4L102.5,23.4z M104.6,25.2c-0.2,3.1,2.1,5.7,5.1,6c0.2,0,0.3,0,0.5,0
	c0.9,0,1.7-0.2,2.5-0.6c0.4-0.3,0.8-0.6,1.1-1c0,1.1-0.2,2.2-0.5,3.2c-0.3,1.2-1.3,2-2.5,2c-0.5,0-1.1-0.2-1.5-0.5
	c-0.4-0.4-0.6-0.8-0.7-1.3H105c0.1,1.4,0.8,2.8,1.9,3.6c1.1,0.8,2.4,1.3,3.7,1.2c2.9,0,4.9-1.4,6-4.3c0.6-1.8,0.9-3.7,0.9-5.7
	c0.1-1.9-0.2-3.8-0.9-5.6c-1.4-3.2-5.1-4.6-8.2-3.3c-0.7,0.3-1.4,0.8-2,1.4C105.1,21.7,104.5,23.4,104.6,25.2L104.6,25.2L104.6,25.2
	z M111,28.2c-0.8,0.1-1.5-0.2-2.1-0.8c-0.5-0.7-0.7-1.6-0.7-2.5c-0.1-1,0.3-2.1,1-2.8c0.5-0.4,1-0.5,1.6-0.5c0.8,0,1.5,0.3,2,0.9
	c0.5,0.7,0.8,1.6,0.7,2.5c0.1,1.1-0.4,2.1-1.2,2.8C112,28.1,111.5,28.2,111,28.2L111,28.2L111,28.2z M124.4,24.5v12.9h3.7V18.6h-3
	c0,0.3-0.1,0.5-0.1,0.8c-0.1,0.5-0.4,1-0.7,1.3c-0.5,0.5-1.1,0.8-1.8,1c-0.8,0.1-1.6,0.2-2.4,0.2v2.5L124.4,24.5L124.4,24.5z
	 M133.4,31.7h7.1v-3.5h-7.1V31.7z M147.6,24.5v12.9h3.7V18.6h-3c0,0.3-0.1,0.5-0.1,0.8c-0.1,0.5-0.4,1-0.7,1.3
	c-0.5,0.5-1.1,0.8-1.8,1c-0.8,0.1-1.6,0.2-2.4,0.2v2.5L147.6,24.5L147.6,24.5z M160.5,28.2c-0.1-1.7,0.1-3.4,0.5-5
	c0.2-1,1.1-1.7,2.1-1.6c1-0.1,1.9,0.6,2.1,1.6c0.4,1.6,0.6,3.3,0.5,5c0.1,1.7-0.1,3.3-0.5,4.9c-0.2,1-1.1,1.7-2.1,1.7
	c-1,0-1.9-0.7-2.1-1.7C160.6,31.5,160.4,29.9,160.5,28.2L160.5,28.2z M163.1,18.5c-2.3,0-4,0.8-4.9,2.5c-1.1,2.2-1.6,4.7-1.4,7.2
	c-0.1,2.5,0.4,4.9,1.4,7.1c0.9,1.7,2.6,2.5,4.9,2.5s4-0.8,4.9-2.5c1.1-2.2,1.6-4.7,1.4-7.1c0.1-2.5-0.4-4.9-1.4-7.2
	C167.1,19.3,165.5,18.5,163.1,18.5L163.1,18.5z M171.1,31.6c0,1.3,0.3,2.5,0.9,3.6c1,1.7,2.8,2.6,5.4,2.6c3.2,0.3,6.1-2.1,6.4-5.3
	c0-0.2,0-0.4,0-0.7c0.1-1.3-0.4-2.6-1.4-3.6c-0.4-0.4-0.9-0.7-1.4-0.9c0.5-0.2,0.9-0.5,1.3-1c0.7-0.8,1-1.8,1-2.8
	c0.1-1.4-0.5-2.8-1.6-3.7c-1.2-1-2.7-1.5-4.3-1.4c-0.8,0-1.6,0.1-2.4,0.3c-0.6,0.2-1.2,0.6-1.7,1c-0.6,0.6-1.1,1.3-1.4,2
	c-0.3,0.9-0.4,1.7-0.5,2.6h3.4c-0.1-0.8,0.1-1.6,0.6-2.2c0.4-0.6,1.2-0.9,1.9-0.8c0.6,0,1.3,0.2,1.7,0.7c0.4,0.5,0.6,1.1,0.6,1.7
	c0.1,0.9-0.4,1.8-1.2,2.2c-0.8,0.3-1.6,0.4-2.5,0.3v2.6c0.9,0,1.8,0.1,2.6,0.3c1,0.4,1.6,1.4,1.5,2.5c0.1,0.8-0.2,1.6-0.8,2.1
	c-0.5,0.5-1.2,0.7-1.9,0.7c-1,0.1-2-0.5-2.4-1.4c-0.3-0.6-0.4-1.2-0.4-1.9L171.1,31.6L171.1,31.6z M191.1,24.5v12.9h3.7V18.6h-3
	c0,0.3-0.1,0.5-0.1,0.8c-0.1,0.5-0.4,1-0.7,1.3c-0.5,0.5-1.1,0.8-1.8,1c-0.8,0.1-1.6,0.2-2.4,0.2v2.5L191.1,24.5L191.1,24.5z"/>
<path id="お問い合わせ-2" class="st1" d="M46,2.1c-0.8,0.3-1.6,0.4-2.5,0.5V1.4c0-0.4,0-0.8,0.1-1.2h-0.9
	c0,0.4,0.1,0.8,0.1,1.2v1.2c-0.4,0-0.8,0-1.2,0c-0.4,0-0.8,0-1.2-0.1v0.8h0.5c0.1,0,0.5,0,0.6,0c0.4,0,0.6,0,0.8,0
	c0.4,0,0.4,0,0.5,0v2.3c-0.6,0.2-1.2,0.6-1.7,1c-0.5,0.4-0.9,1-1,1.6c0,0.5,0.2,0.9,0.6,1.2c0.6,0.5,1.3,0.8,2,0.8
	c0.5,0,0.9-0.3,0.9-0.7c0-0.1,0-0.2,0-0.2V6.3c0.8-0.3,1.7-0.5,2.6-0.5c1.6,0,2.6,0.8,2.6,2c0.1,0.9-0.6,1.7-1.5,1.7
	c0,0-0.1,0-0.1,0c-0.9,0-1.3-0.5-1.3-1.8c0-0.2,0-0.3,0-0.5c-0.2,0.2-0.5,0.3-0.8,0.3c0,0.5,0,0.9,0.1,1.4c0.2,0.9,1,1.5,1.9,1.4
	c1.4,0,2.5-1.1,2.5-2.5c0,0,0,0,0-0.1c0-0.9-0.5-1.7-1.3-2.2c-0.7-0.4-1.4-0.5-2.2-0.5c-0.9,0-1.8,0.2-2.6,0.4V3.4
	c0.7-0.1,1.4-0.2,2.2-0.4c0.2,0,0.2,0,0.4-0.1L46,2.1z M42.7,8.9c0,0.5,0,0.6-0.3,0.6c-0.4,0-0.8-0.1-1.1-0.4
	c-0.3-0.1-0.5-0.4-0.5-0.7c0-0.6,0.7-1.3,1.9-1.9C42.7,6.6,42.7,8.9,42.7,8.9z M50,3.7c-0.7-0.9-1.5-1.7-2.5-2.4l-0.6,0.5
	c1,0.7,1.8,1.5,2.5,2.4L50,3.7z M53,4.3h2.2c0.5,0,1,0,1.2,0c0-0.3,0-0.6,0-1.1V1.5c0-0.5,0-0.8,0-1.2c-0.4,0-0.8,0.1-1.2,0h-1.7
	c-0.4,0-0.8,0-1.3,0c0,0.4,0,0.8,0,1.4v8c0,0.5,0,0.9-0.1,1.4h0.9C53,10.7,53,10.2,53,9.7L53,4.3L53,4.3z M53,1h2.7v1H53L53,1L53,1z
	 M53,2.6h2.7v1H53L53,2.6L53,2.6z M62,1.7c0-0.5,0-0.9,0.1-1.4c-0.4,0-0.9,0.1-1.3,0h-2c-0.4,0-0.8,0-1.2-0.1c0,0.4,0,0.7,0,1.2v1.7
	c0,0.5,0,0.8,0,1.1c0.3,0,0.7,0,1.2,0h2.4v5.6c0,0.3-0.1,0.4-0.4,0.4c-0.5,0-1-0.1-1.5-0.1c0.1,0.2,0.2,0.5,0.2,0.8
	c0.5,0,1,0.1,1.5,0.1c0.8,0,1.1-0.2,1.1-1L62,1.7L62,1.7z M58.3,1h2.9v1h-2.9L58.3,1L58.3,1z M58.3,2.6h2.9v1h-2.9L58.3,2.6
	L58.3,2.6z M59.3,6.2c0-0.3,0-0.5,0-0.8c-0.3,0-0.6,0-0.9,0h-2.7c-0.3,0-0.6,0-0.8,0c0,0.3,0,0.5,0,0.8v2.5c0,0.4,0,0.8-0.1,1.2h0.8
	v-1h2.9c0.3,0,0.5,0,0.8,0c0-0.2,0-0.5,0-0.7V6.2z M55.6,6.1h2.9v2.1h-2.9L55.6,6.1L55.6,6.1z M64.9,1.5c0,0.2,0,0.5,0,0.7
	c-0.1,2,0.1,3.9,0.7,5.8c0.4,1.2,1,1.9,1.7,1.9c0.9,0,1.4-0.8,2-3c-0.3-0.2-0.5-0.4-0.7-0.7c-0.1,0.7-0.3,1.4-0.6,2.1
	c-0.1,0.3-0.3,0.5-0.6,0.6c-0.5,0-1-0.9-1.2-2.1c-0.2-1.3-0.3-2.6-0.3-3.9c0-0.5,0-1,0.1-1.5L64.9,1.5z M71,2.5
	c1.5,1.7,2.3,3.9,2.5,6.1l0.9-0.4C74.3,7.1,74,6,73.5,5c-0.4-1-1-2-1.7-2.8L71,2.5z M81,0c-0.5,0.8-1.1,1.5-1.9,2.2
	c-1,0.9-2.1,1.6-3.3,2.2C76,4.5,76.2,4.7,76.3,5c0.9-0.4,1.8-1,2.6-1.6c1-0.8,1.9-1.7,2.6-2.7c0.5,0.8,1.2,1.5,1.9,2.1
	c1,0.9,2.2,1.7,3.4,2.3c0.1-0.3,0.3-0.5,0.5-0.8c-1.2-0.5-2.3-1.2-3.3-2c-0.8-0.6-1.5-1.4-2-2.2L81,0L81,0z M78.6,4.6
	c0.3,0,0.6-0.1,1-0.1h3.8c0.3,0,0.7,0,1,0.1V3.8c-0.3,0-0.7,0.1-1,0.1h-3.8c-0.3,0-0.6,0-1-0.1C78.6,3.8,78.6,4.6,78.6,4.6z
	 M78.5,11.1v-0.7h5.9v0.7h0.9c-0.1-0.4-0.1-0.8-0.1-1.2V7.1c0-0.4,0-0.8,0.1-1.1C85,6,84.7,6,84.3,6h-5.7c-0.3,0-0.6,0-1-0.1
	c0,0.4,0.1,0.8,0.1,1.1v2.7c0,0.4,0,0.8-0.1,1.2L78.5,11.1L78.5,11.1z M78.5,6.8h5.9v2.8h-5.9V6.8L78.5,6.8z M89,8.4
	c0.3-0.4,0.7-0.8,1.1-1.2c0.2-0.2,0.5-0.4,0.6-0.7h0c0,0.3,0,0.4,0,1.9c0,0.8,0,1.6-0.1,2.3h1c-0.1-0.6-0.1-1.2-0.1-4.9
	c1.6-1.5,2.7-2,3.9-2c1.2,0,2.3,0.9,2.3,2.2c0,0.1,0,0.2,0,0.3c0,0.5-0.1,1-0.3,1.5C96.9,8.6,96,9.2,95,9.1c-0.7,0-1.5-0.2-2.2-0.5
	c0.1,0.2,0.1,0.5,0.1,0.7c0,0.1,0,0.1,0,0.2c0.7,0.2,1.4,0.4,2.1,0.4c1.9,0.1,3.6-1.4,3.7-3.3c0-0.1,0-0.3,0-0.4
	c0.1-1.7-1.3-3.2-3-3.2c-0.1,0-0.2,0-0.3,0c-1.1,0-2.2,0.5-3.1,1.2c-0.3,0.2-0.5,0.4-0.7,0.6l0,0h0c0,0,0-0.4,0.1-1.3
	c0.2-0.3,0.4-0.6,0.6-0.8l-0.3-0.4c-0.1,0-0.2,0.1-0.3,0.1c0-0.3,0-0.3,0-0.7c0-0.5,0-1,0.1-1.4h-1c0,0.2,0,0.3,0,0.5
	c0,0.5,0,1,0,1.7c-1,0.1-1.5,0.1-1.7,0.1c-0.1,0-0.2,0-0.3,0l0.1,0.9c0.4-0.1,0.9-0.1,1.3-0.1c0.5,0,0.5,0,0.6,0
	c0,1.1,0,1.2-0.1,2.2c-0.2,0.1-0.2,0.1-0.4,0.3C90,6.2,90,6.2,89.6,6.6c-0.3,0.3-0.7,0.6-1,0.9L89,8.4z M102.9,0.8
	c0.1,0.6,0.1,1.2,0.1,1.8v0.8c-1.3,0.1-2,0.2-2.3,0.2c-0.1,0-0.2,0-0.3,0l0.1,0.9c0.8-0.1,1.6-0.2,2.4-0.3v1.6c-0.1,1,0,2,0.2,2.9
	c0.3,1.1,1.2,1.5,3.4,1.5c1,0,2.1-0.1,3.1-0.3c0.3,0,0.3-0.1,0.5-0.1L110,9c-1.1,0.3-2.2,0.5-3.4,0.5c-0.6,0-1.3,0-1.9-0.2
	c-0.4-0.1-0.7-0.4-0.8-0.8c-0.1-1-0.2-2.1-0.1-3.1V4.2c1.6-0.1,2.5-0.2,4-0.2c0,0.6,0,1.3-0.1,1.9c-0.1,0.6-0.3,0.8-0.6,0.8
	c-0.6-0.1-1.1-0.3-1.6-0.7c0,0.2,0,0.4,0,0.5s0,0.2,0,0.4c0.5,0.3,1.1,0.5,1.7,0.6c0.6,0,1.2-0.5,1.2-1.1c0.2-0.8,0.2-1.6,0.2-2.4
	c0.4,0,0.7,0,0.9,0c0.4,0,0.7,0,0.8,0c0.5,0,0.6,0,0.9,0l0-0.9c-0.4,0-1.4,0.1-2.5,0.1V2.9l0-0.8V1.5c0-0.3,0-0.6,0-1h-0.9
	c0.1,0.6,0.1,1.3,0.1,1.9c0,0.1,0,0.3,0,0.4v0.3c-1.5,0.1-2,0.1-4,0.2c0-0.9,0-1.7,0.1-2.6L102.9,0.8L102.9,0.8z"/>
<image style="display:none;overflow:visible;enable-background:new    ;" width="30" height="31" id="icon-tel01" xlink:href="2D33F980E00B63CE.png"  transform="matrix(1 0 0 1 0 7.375)">
</image>
<g>
	<path class="st2" d="M2.5,8.4c-2,1.9-1.7,6.6-0.2,10.2c1.2,2.8,3.3,6.5,6.3,9.9c2.9,3.1,6.5,5.7,9.3,7.1c3.5,1.8,8.2,2.5,10.2,0.7
		c1-0.9,2.4-3.3,2.4-3.7c0,0-1.3-1.4-1.5-1.7l-4.3-4.6c-0.3-0.3-1.8,0.3-2.6,0.9c-1,0.8-1.7,2.6-1.7,2.6c-0.7,0.6-1.4,0.2-2.8-0.1
		c-1.7-0.5-3.9-2.4-5.7-4.3c-1.7-1.9-3.4-4.3-3.8-6c-0.3-1.4-0.5-2.1,0.1-2.8c0,0,1.9-0.6,2.7-1.5c0.6-0.7,1.4-2.1,1.1-2.5L7.9,8
		C7.6,7.7,6.4,6.3,6.4,6.3C6,6.3,3.5,7.5,2.5,8.4z"/>
</g>
</svg>
