<?xml version="1.0" encoding="utf-8"?>
<!-- Generator: Adobe Illustrator 24.1.0, SVG Export Plug-In . SVG Version: 6.00 Build 0)  -->
<svg version="1.1" id="レイヤー_1" xmlns="http://www.w3.org/2000/svg" xmlns:xlink="http://www.w3.org/1999/xlink" x="0px"
	 y="0px" viewBox="0 0 283 146" style="enable-background:new 0 0 283 146;" xml:space="preserve">
<style type="text/css">
	.st0{fill:#7ABCE8;}
	.st1{fill:#1E3261;}
</style>
<g>
	<g>
		<g>
			<path class="st0" d="M139.7,0c-1.6,0-3.3,1.3-3.6,2.9l-3.4,17.2c-0.3,1.6,0.8,2.9,2.4,2.9h57.7c1.6,0,3.3-1.3,3.6-2.9l3.4-17.2
				c0.3-1.6-0.8-2.9-2.4-2.9H139.7z"/>
		</g>
		<g>
			<path class="st0" d="M104.6,0c-1.7,0-3.3,1.3-3.6,2.9L83.3,92.9c-0.3,1.6,0.8,2.9,2.4,2.9h20.4c1.7,0,3.3-1.3,3.6-2.9l17.7-89.9
				c0.3-1.6-0.8-2.9-2.4-2.9H104.6z"/>
		</g>
		<g>
			<path class="st0" d="M134.5,29.7c-1.6,0-3.3,1.3-3.6,2.9l-6.2,29.8c-0.3,1.6,0.7,2.9,2.4,2.9h20.4c1.6,0,3.3-1.3,3.6-2.9l1.4-6.7
				c0.3-1.6,2-2.9,3.6-2.9h31.5c1.6,0,3.3-1.3,3.6-2.9l3.4-17.2c0.3-1.6-0.8-2.9-2.4-2.9h-31.3c-1.6,0-4.3,0-6,0H134.5z"/>
		</g>
		<g>
			<path class="st0" d="M162,69.8c-0.3,1.6-2,2.9-3.6,2.9h-31.5c-1.7,0-3.3,1.3-3.6,2.9l-3.4,17.2c-0.3,1.6,0.8,2.9,2.4,2.9l31.3,0
				c1.6,0,3,0,3,0s1.4,0,3,0l20.4,0c1.6,0,3.3-1.3,3.6-2.9l6.2-29.8c0.3-1.6-0.7-2.9-2.4-2.9H167c-1.7,0-3.3,1.3-3.6,2.9L162,69.8z"
				/>
		</g>
	</g>
</g>
<g>
	<g>
		<path class="st1" d="M1.9,122.8h8.5C9,126.3,5.8,132.7,0,135.7c0,0,3.9,1.7,4.5,2.4c0.1,0.1,0.1,0.1,0.1,0.1c0.1,0,0.1,0,0.2-0.1
			c1.1-0.8,2.1-1.7,3-2.7l-0.2,9.8h4.5l0-2.5h10.8v2.3h4.5V128H12.8c1.1-2,1.9-3.9,2.4-5.2h15v-4.3H1.9V122.8z M12.3,132.1h10.7v6.4
			H12.2L12.3,132.1z M66.1,124.6v-3h-9.4c0.2-0.4,0.4-0.8,0.5-1.2c3.5-0.3,5.8-0.5,6.1-0.6c0.4,0.4,0.8,0.5,1,0.5
			c0.2,0,0.3-0.2,0.3-0.4c0-0.1,0-0.2-0.1-0.3c-0.4-0.8-2.4-3-2.4-3s-4.6,0.9-11.1,0.9c-1.5,0-3.1,0-4.7-0.2c0,0,1.9,2.4,2.1,3.1
			c0.1,0.2,0.2,0.2,0.4,0.2c1.5,0,3,0,4.4-0.1c-0.1,0.4-0.3,0.7-0.4,1h-5.6v3h3.4c-1.2,1.2-2.8,2.1-4.6,2.8
			c-0.3-0.4-0.5-0.8-0.7-1.1h1.4v-4.2H45v-3.4c0,0,0-0.9,0.1-1.4c0.5-0.1,0.9-0.4,0.9-0.6c0-0.2-0.2-0.3-0.5-0.4
			c-1.3-0.2-4.7-0.3-4.7-0.3c0.1,0.6,0.1,2.2,0.1,2.2v3.8h-3.3v4.2h3c-0.7,2.4-2.2,6.3-4.3,8.4c0,0,2.2,1.6,3,2.7
			c0,0,0.1,0.1,0.1,0.1c0.4,0,1.2-2.5,1.7-4.1c-0.1,2.1-0.2,4.3-0.2,6v6.3H45v-6.1c0-2-0.2-6.5-0.4-9.4c0.9,2.4,0.9,2.6,1.1,2.6
			c0,0,0.1,0,0.1-0.1c0.5-0.5,2.8-1.6,2.8-1.6c-0.7-0.8-1.3-1.6-1.9-2.4c0.7,0.4,1.4,0.9,1.7,1.2c0.1,0.1,0.1,0.1,0.2,0.1
			c0.3,0,1.8-1,2.1-1.2v2.7h3.4v-0.4h4.5v0.4h3.5v-2.6c0.6,0.4,1.2,0.7,1.9,1.1c0.1,0,0.1,0.1,0.2,0.1c0.1,0,0.1,0,0.2-0.1
			c1-1.2,3.4-2.8,3.4-2.8c-2.7-0.5-4.6-1.5-5.9-2.5H66.1z M54.9,124.6h2.6c0.2,0.3,0.5,0.7,0.8,1h-4.2
			C54.4,125.3,54.7,124.9,54.9,124.6z M58.6,129h-4.5v-1.2h4.5V129z M65.6,132.2H47.1v13.4H51V135h10.9v6.3c0,0.8-1.1,1-2.3,1
			c-1,0-2-0.1-2.6-0.2c0,0,1.9,2.1,2.3,3.2c0.1,0.2,0.2,0.2,0.4,0.2h0.5c2.9,0,5.6-0.8,5.6-3.8c0,0,0,0,0-0.1l0-2.2V132.2z
			 M57.7,141.6h3v-5.7H52v6.4h2.9V141h2.8V141.6z M54.9,139.1v-1.3h2.8v1.3H54.9z M103.6,129.4c-2.4-0.4-4.3-1.1-5.7-1.8
			c1.3-1.7,2.1-3.5,2.5-5h1.9V119h-8c0.2-0.4,0.3-0.8,0.4-1.1h0.1c0.5,0,0.7-0.2,0.7-0.3c0-0.2-0.1-0.3-0.4-0.4
			c-0.4-0.1-3.8-1-3.8-1c-0.4,1.8-1.4,5-3.8,8.1v-2.3h-4.6v-1h6v-3.1h-6v-0.1c0,0,0-0.7,0.1-0.9c0.5-0.1,0.8-0.3,0.8-0.4
			s-0.2-0.3-0.8-0.3c-0.5,0-3.9-0.1-3.9-0.1c0.1,0.6,0.1,1.8,0.1,1.8v0.1h-5.7v3.1h5.7v1h-4.6v5.6h3V127h0.8
			c-1.3,1.1-3.3,2.5-6.2,3.5c0,0,2.3,1.5,2.9,2.2h-0.3v3.2h11v5.6h-3v-2.6c0,0,0-0.8,0.1-1.1c0.7-0.1,0.9-0.3,0.9-0.5
			c0-0.2-0.2-0.3-0.6-0.4c-0.6-0.1-4.8-0.2-4.8-0.2c0.1,0.6,0.1,2.2,0.1,2.2v2.6H74v3.4h27.7v-3.4H90.1v-1.3h8.8v-3h-8.8v-1.2H101
			v-3.2h-1.1C100.8,131.6,103.6,129.4,103.6,129.4z M96.2,122.6c-0.3,0.9-0.7,1.8-1.3,2.7c-0.9-1-1.3-2-1.6-2.7H96.2z M82.9,123.9
			h1.7v1.2h-1.7V123.9z M77.6,125.1v-1.2h1.6v1.2H77.6z M75.7,132.7c1.6-1,2.8-2,3.6-3c-0.1,0.6-0.1,1.2-0.1,1.6v0.7h3.8v-0.6
			c0-0.5-0.1-1.1-0.1-1.9c0.9,1.3,2.2,2.2,2.4,2.2c0.1,0,0.1,0,0.2-0.1c0.2-0.3,0.6-0.5,1-0.9c0.8,0.6,1.7,1.4,2.1,1.9H75.7z
			 M87.6,129.3c-1.8-0.7-3.2-1.6-4.1-2.3h1.1v0.4h2.9v-1.2c0.8,0.2,1.7,0.6,2.3,1c0.1,0.1,0.2,0.1,0.2,0.1c0.1,0,0.5-0.6,0.9-1.1
			c0.4,0.5,0.7,1.1,1.2,1.6C90.9,128.4,89.5,128.9,87.6,129.3z M90.3,132.7c1.9-0.5,3.4-1.3,4.7-2.3c1.2,0.9,2.6,1.7,4.2,2.3H90.3z
			 M139,135.2c-1.4-0.9-4-2.3-4-2.3c-1.2,2.8-4.6,7.4-11.4,8.8v-10.1h2.5c-0.7,0.3-1.4,0.5-2.1,0.7c0,0,3.3,1.9,3.9,2.9
			c0.1,0.1,0.1,0.2,0.2,0.2c0.4,0,5-2,9.6-8c0.2,0,0.4,0.1,0.5,0.1c0.3,0,0.5-0.1,0.5-0.3c0-0.2-0.1-0.4-0.5-0.7
			c-1-0.8-3.7-2.3-3.7-2.3c-1.6,2.5-4.5,5.3-7.9,7v-3.6h-3.1v-3.8c0.6,0.3,3.3,1.8,3.9,2.8c0.1,0.1,0.2,0.2,0.2,0.2
			c0.2,0,4.6-1.6,9.7-7.6c0.2,0,0.4,0.1,0.5,0.1c0.3,0,0.5-0.1,0.5-0.3c0-0.1-0.1-0.4-0.5-0.6c-1.1-0.8-3.7-2.3-3.7-2.3
			c-2,2.9-6,6.3-10.7,7.6v-2.4h2.5v-3.9h-16.1v3.9h2.6c0,2.1,0,4.7,0,6.3h-3.3v3.9h3.3c-0.1,3.9-0.7,9.5-4.7,12.5c0,0,3.6,1,4.4,1.8
			c0.1,0.1,0.1,0.1,0.2,0.1c0.1,0,3.9-3,4.3-14.4h2.5v13.7h4.2v-2.5c1.1,0.8,2.5,1.9,2.8,2.5c0.1,0.1,0.1,0.2,0.2,0.2
			c0,0,6.9-1.4,11.8-9.5c0.2,0.1,0.4,0.1,0.6,0.1c0.3,0,0.5-0.1,0.5-0.3C139.5,135.7,139.4,135.5,139,135.2z M119.4,127.7h-2.5
			c0-1.6,0-4.3,0-6.3h2.5V127.7z M168.5,118.8c0,0,0-1.1,0.1-1.4c0.6-0.1,0.9-0.3,0.9-0.5c0-0.2-0.2-0.3-0.6-0.4
			c-0.6-0.1-4.7-0.3-5.1-0.3c0,0.6,0.1,2.6,0.1,2.6v7.2c-0.9-1.2-1.5-2.2-1.9-2.9l0.1-0.5c0.4-0.1,0.5-0.3,0.5-0.4
			c0-0.4-2.5-1.9-2.7-1.9c-0.2,0-0.4,0.2-0.6,0.2h-3.9c0.3-0.8,0.4-1.5,0.6-2.2c0.8-0.1,1.1-0.3,1.1-0.5c0-0.2-0.3-0.4-0.6-0.4
			c-1.2-0.3-4.6-1-4.6-1c-0.4,2.9-3.2,11.7-7.5,16c0,0,3.5,0.8,4.4,1.3c0.1,0,0.1,0.1,0.1,0.1c0.1,0,2.5-2.4,5.2-9.6l3.5,0
			c-0.3,1.6-0.7,3.6-1.3,5.6c-0.8-0.4-1.9-1-3.2-1.5l-2,3.9c1.5,0.5,2.8,1.1,3.6,1.6c-2,4.1-5.2,7.9-10.6,9.4c0,0,3.9,1.9,4.8,2.6
			c0.1,0.1,0.1,0.1,0.2,0.1c0.1,0,0.1,0,0.2-0.1c6.7-3.2,9.9-10.5,11.6-17.5c0.8,1.1,1.8,2.4,3,3.8v13.4h4.6v-9.2
			c1.5,1.2,3,1.9,3,1.9c0.1,0,0.1-0.1,0.2-0.1c0.8-0.9,4-3.2,4-3.2c-2.8-0.9-5.2-2.4-7.2-4V118.8z M207.5,132.5v-13.9
			c0,0,0-0.9,0.1-1.5c0.6-0.1,0.9-0.4,0.9-0.5c0-0.4-1.2-0.5-5.7-0.5c0.1,0.8,0.1,2.2,0.1,2.2v15.4l-10.6,2.6l1.1,3.9l9.5-2.4v7.8
			h4.6v-9l3.6-0.9l-0.9-4L207.5,132.5z M192.4,135.4c0.8-0.6,3.3-2,3.3-2c-1.6-1.6-3.2-3.8-4.2-5.2h2.6l-0.4,0.5
			c0,0,3.1,1.4,5.8,4.3l2.6-3.5c-2.7-2.6-5.9-3.9-5.9-3.9l-1.9,2.3V124h-3.7l0-3.8c1.1-0.3,2.2-0.6,3.2-0.9c0.3,0.2,0.6,0.3,0.8,0.3
			s0.4-0.1,0.4-0.3c0-0.1-0.1-0.2-0.2-0.3c-0.7-0.9-3.1-3.3-3.1-3.3c-2.4,1.2-9,2.2-11.1,2.3c0,0,2.2,2.7,2.5,3.5
			c0.1,0.1,0.1,0.2,0.2,0.2c0,0,0,0,2.8-0.5l0,2.8h-4.8v4.1h4c-1.1,2.5-3,6.3-5.5,8.7c0,0,3,1,4.1,1.8c0.1,0,0.1,0.1,0.1,0.1
			c0.3,0,1.5-2.5,2.3-5c-0.2,2-0.3,4.1-0.3,5.6v6.3h4.5v-6.1c0-1.9-0.2-5.3-0.4-7.6c0.8,1.8,1.8,3.6,1.9,3.6
			C192.3,135.4,192.4,135.4,192.4,135.4z M200.1,126l2.7-3.5c-2.4-2.7-5.5-4.2-5.5-4.2l-2.7,3C194.7,121.3,197.8,122.9,200.1,126z
			 M226.4,126.8h7.2v1.4h-6.6l-0.2,17.3h3.9l0.1-6.6c0.7,0.3,1.4,0.6,1.6,0.9c0.1,0.1,0.1,0.1,0.2,0.1c0.1,0,0.1,0,0.2,0
			c2.1-2,2.9-4.7,2.9-4.7s0.9,2.2,2.8,4.3c0.1,0.1,0.1,0.1,0.2,0.1c0,0,0.1,0,0.2-0.1c0.4-0.2,1-0.5,1.7-0.7c0,0.6,0,1.4,0,1.7
			c0,1-0.8,1.3-2.3,1.3c-0.8,0-1.8-0.1-3-0.3c0,0,1.8,2.3,2.1,3.8c0.1,0.2,0.2,0.2,0.4,0.2h0.6c2.9,0,6.3-0.6,6.3-4v-0.2
			c0-0.4-0.1-2.1-0.1-4.1v-9h-7.2v-1.4h7.6v-3.3h-18.7V126.8z M230.8,136.7l0.1-5.2h2.6C233.1,133.1,232.3,135.1,230.8,136.7z
			 M240.5,131.4v4.9c-1.5-1.5-2.5-3.2-2.9-4.9H240.5z M235.8,117c0.6-0.1,0.9-0.4,0.9-0.5s-0.2-0.3-0.5-0.4
			c-0.7-0.1-4.8-0.2-4.8-0.2c0.1,1,0.1,2,0.1,2.6h-10c0,0,0.1,3.8,0.2,7.3c-0.8-2.2-1.8-4-1.8-4l-3.3,1.1c0,0,1.5,3,2.2,5.9l2.9-1.1
			c0,0.8,0,1.5,0,2.1c-1.2,0.9-3.4,1.9-5.5,2.6c0,0,1.6,3.4,2.1,4.2c0.1,0.2,0.2,0.3,0.3,0.3c0.2,0,0.3-0.3,0.3-0.7
			c0-0.1,0-0.2,0-0.3c0.5-0.2,1.4-0.9,2.4-1.6c-0.6,3.3-2.1,6.7-4.8,9.2c0,0,3.4,0.7,4.5,1.4c0.1,0.1,0.1,0.1,0.2,0.1
			c0.2,0,4.5-4.8,4.5-15c0-4.7-0.1-7.9-0.1-7.9h20.3v-3.6h-10.1C235.8,118.1,235.8,117.4,235.8,117z M270.4,119.2h-6.4v7.2h2.1v1.7
			h13.3v-1.8h2.6v-7.2h-7.3c0-0.4,0-1.3,0.1-1.9c0.7-0.2,1-0.4,1-0.6c0-0.2-0.3-0.4-0.8-0.4c-1.2-0.1-4.8-0.2-4.8-0.2
			C270.4,117.4,270.4,119.1,270.4,119.2L270.4,119.2z M277.9,122.8v1.6h-9.8v-1.6H277.9z M282.8,139.6c-0.8-0.4-3.7-2.8-3.7-2.8
			c0,0.8,0,1.4,0,2c0,1.9-0.3,2.4-1.4,2.3c-0.5,0-0.6-0.3-0.6-0.8c0-0.1,0-4.2,0-7h5v-3.7h-17.4v3.7h3c0,4.2-1,8.1-8.7,9.2
			c0,0,3.4,1.9,4.2,2.9c0.1,0.1,0.2,0.1,0.2,0.1c0,0,0.1,0,0.2-0.1c6.9-1.9,7.9-7.4,8-12.2h1.3c0,2.8-0.1,6.7-0.1,7.9v0.1
			c0,3,1.5,3.6,4.8,3.6c4.4,0,5.1-2.3,5.2-5C283,139.6,282.8,139.6,282.8,139.6z M259.5,138.6c3,0,4.6-2.2,4.6-6.3
			c0-2.6-0.9-4.5-1.7-5.6c0.4-1.4,1-4.9,1.6-8.1c0.3-0.1,0.4-0.3,0.4-0.4c0-0.4-2.6-1.7-3-1.7c-0.3,0-0.3,0.2-0.5,0.2h-7.1v28.7h4.1
			v-9.8c0.4,1,0.9,2.2,1,2.7c0,0.2,0.1,0.2,0.3,0.2H259.5z M258.4,134.7c-0.2,0-0.4,0-0.5-0.1v-14.2h2c-0.4,2.8-0.9,4.9-1.3,6.7
			c0.7,0.8,1.7,2.4,1.7,4.7C260.3,133.9,259.5,134.7,258.4,134.7z"/>
	</g>
</g>
</svg>
