<svg id="初診はこちら" xmlns="http://www.w3.org/2000/svg" width="83" height="67" viewBox="0 0 83 67">
  <defs>
    <style>
      .cls-1 {
        fill: #4ca1ef;
      }

      .cls-2 {
        fill: #fff;
        fill-rule: evenodd;
      }
    </style>
  </defs>
  <rect id="長方形_6" data-name="長方形 6" class="cls-1" y="-18" width="83" height="85" rx="5" ry="5"/>
  <path id="初診ご予約" class="cls-2" d="M1137.41,28.426c0,1.064-.01,1.2-0.04,1.778a11.721,11.721,0,0,1-1.2,4.829,7.125,7.125,0,0,1-2.09,2.506,4.793,4.793,0,0,1,1.11,1.316,11.822,11.822,0,0,0,1.49-1.624,9.9,9.9,0,0,0,1.7-3.6,20.474,20.474,0,0,0,.57-5.207h1.95c-0.03,2.492-.03,2.94-0.09,4.353-0.05,1.134-.18,2.673-0.29,3.275-0.15.952-.29,1.12-0.88,1.12a13.576,13.576,0,0,1-1.77-.154,4.575,4.575,0,0,1,.34,1.568c0.88,0.042,1.06.056,1.47,0.056a2.881,2.881,0,0,0,1.41-.224,1.471,1.471,0,0,0,.76-1.008,39.5,39.5,0,0,0,.56-7.419,22.2,22.2,0,0,1,.1-3,9.883,9.883,0,0,1-1.35.07h-4.04a13.8,13.8,0,0,1-1.67-.084V28.51a13.232,13.232,0,0,1,1.67-.084h0.29Zm-3.95,5.291a13.155,13.155,0,0,0,1.7,1.4,4.926,4.926,0,0,1,.78-1.176c-0.45-.266-0.6-0.364-0.88-0.56a14.612,14.612,0,0,0,1.47-1.89l-1.08-.84a8.143,8.143,0,0,1-1.34,1.988,4.572,4.572,0,0,1-.49-0.476,13.172,13.172,0,0,0,1.51-2.52,4.431,4.431,0,0,1,.31-0.588l-0.65-.812a5.8,5.8,0,0,1-.99.056h-0.28V27.278a4.934,4.934,0,0,1,.08-1.162h-1.63a6.918,6.918,0,0,1,.08,1.162V28.3h-0.47a7.981,7.981,0,0,1-1.31-.07v1.484a10.116,10.116,0,0,1,1.28-.07h2.01a9.035,9.035,0,0,1-1.79,2.534,9.991,9.991,0,0,1-2.04,1.624,4.512,4.512,0,0,1,.73,1.4,12.951,12.951,0,0,0,1.58-1.3,1.755,1.755,0,0,1-.02.364v2.981c0,0.644-.04,1.26-0.08,1.722h1.64a10.648,10.648,0,0,1-.1-1.722V33.927ZM1148,29.994a4.241,4.241,0,0,1,1,1.232,10.562,10.562,0,0,0,3.43-3.7,11.42,11.42,0,0,0,3.84,3.793,6.178,6.178,0,0,1,.77-1.47,10.158,10.158,0,0,1-2.03-1.386,8.415,8.415,0,0,1-1.76-2.226h-1.71a8.633,8.633,0,0,1-2.72,3.247V28.44a7.331,7.331,0,0,1-1.12.056h-2.77a6.18,6.18,0,0,1-1.12-.07v1.456a8.406,8.406,0,0,1,1.12-.056h3.36Zm-3.73-2.184a8.832,8.832,0,0,1,1.14-.056h1.97a8.283,8.283,0,0,1,1.13.056V26.452a6.234,6.234,0,0,1-1.13.07h-1.97a6.221,6.221,0,0,1-1.14-.07V27.81Zm0.05,4.045a6.922,6.922,0,0,1,.88-0.042h2.42a6.826,6.826,0,0,1,.85.042V30.54a6.114,6.114,0,0,1-.85.042h-2.42a5.146,5.146,0,0,1-.88-0.042v1.316Zm0,1.974a6.916,6.916,0,0,1,.86-0.042h2.41a6.837,6.837,0,0,1,.88.042V32.513a4.711,4.711,0,0,1-.87.042h-2.4a5.134,5.134,0,0,1-.88-0.042v1.316Zm1.33,5.151V38.322h1.53v0.462h1.4a9.591,9.591,0,0,1-.05-1.162V35.495a8.346,8.346,0,0,1,.04-1.008,7.591,7.591,0,0,1-.97.042h-2.26a7.564,7.564,0,0,1-1.09-.056,9.214,9.214,0,0,1,.05,1.092v2.044c0,0.462-.03.938-0.07,1.372h1.42Zm0-3.247h1.53V37.09h-1.53V35.733Zm6.97-6.383a8.38,8.38,0,0,1-3.73,2.911,5.279,5.279,0,0,1,.8,1.134,11.06,11.06,0,0,0,3.65-2.729c0.17-.182.17-0.182,0.4-0.406Zm2.89,4.115a7.885,7.885,0,0,1-1.77,1.946,12.1,12.1,0,0,1-4.74,2.351,4.211,4.211,0,0,1,.94,1.288,14.8,14.8,0,0,0,2.72-1.148,12.546,12.546,0,0,0,2.99-2.324c0.8-.868.8-0.868,1.05-1.148Zm-1.47-2.086a5.594,5.594,0,0,1-1.26,1.4,10.466,10.466,0,0,1-3.83,2.128,6.524,6.524,0,0,1,.92,1.2,15.656,15.656,0,0,0,1.49-.686,13.529,13.529,0,0,0,2.24-1.54,19.15,19.15,0,0,0,1.59-1.6Zm5.65-2.394a1.856,1.856,0,0,1,.19.014c0.06,0,.16.014,0.32,0.028a22.184,22.184,0,0,0,2.57.168,14.978,14.978,0,0,0,2.1-.112c-0.19.112-.2,0.112-0.31,0.168-0.18.112-.23,0.14-0.37,0.224-0.35.2-.5,0.294-1.38,0.854l1.22,0.966a25.028,25.028,0,0,1,3.73-2.31l-0.05-1.582a17.429,17.429,0,0,1-3.7.266,18.407,18.407,0,0,1-4.2-.35Zm1.03,3.163a3.953,3.953,0,0,0-1.8,3.051,2.419,2.419,0,0,0,1.79,2.338,9.994,9.994,0,0,0,3.5.462,22.624,22.624,0,0,0,3.78-.322,5.781,5.781,0,0,1,.61-0.056l-0.15-1.918a14.45,14.45,0,0,1-4.4.6c-2.36,0-3.38-.392-3.38-1.3a2.735,2.735,0,0,1,1.27-1.932Zm9.62-.574a8.008,8.008,0,0,0-1.46-1.974l-0.93.49a10.541,10.541,0,0,1,1.42,2.03Zm-4.12-.658A9.254,9.254,0,0,1,1167.69,33l0.98-.518a8.774,8.774,0,0,0-1.47-2.058Zm15.66-4.325a8.656,8.656,0,0,1-1.21.056h-6.23a11.355,11.355,0,0,1-1.72-.084v1.554a12.666,12.666,0,0,1,1.69-.07h5.46a14.963,14.963,0,0,1-2.22,1.442c-0.83-.518-1.14-0.714-2.06-1.218l-1.02.952a29.141,29.141,0,0,1,3.08,1.988h-4.33a14.029,14.029,0,0,1-1.83-.084v1.582a14.627,14.627,0,0,1,1.76-.084h3.71v4.437c0,0.308-.1.378-0.56,0.378a13.538,13.538,0,0,1-2.04-.14,5.765,5.765,0,0,1,.4,1.554c0.44,0.028,1.14.042,1.6,0.042,1.72,0,2.18-.308,2.18-1.456V32.625h3.25a8.883,8.883,0,0,1-2.03,1.9,4.372,4.372,0,0,1,1.23,1.05,13.028,13.028,0,0,0,2.23-2.309c0.59-.784.9-1.176,0.91-1.19l-0.88-.938a11.7,11.7,0,0,1-1.56.07h-2.5l0.42-.42c-0.34-.224-0.35-0.238-0.66-0.434,0.73-.448,1.32-0.84,2.17-1.414a15.16,15.16,0,0,0,1.62-1.33Zm3.29,6.873a8.227,8.227,0,0,1,.91-0.084c0.28-.028.71-0.056,1.31-0.1v4.283a9.842,9.842,0,0,1-.08,1.5h1.54a9.615,9.615,0,0,1-.09-1.5V33.157c0.26-.014.58-0.056,1-0.1,0.05,0.224.08,0.336,0.15,0.658l1.18-.49a20.977,20.977,0,0,0-1.11-2.729l-1.05.42a7.461,7.461,0,0,1,.41.952c-0.72.084-.77,0.084-1.6,0.126a38.233,38.233,0,0,0,2.37-3.149,6.144,6.144,0,0,1,.46-0.644l-1.29-.742a15.394,15.394,0,0,1-1.51,2.45c-0.2-.252-0.35-0.42-0.59-0.7a18.538,18.538,0,0,0,1.3-2.142c0.16-.28.21-0.378,0.3-0.5l-1.33-.546a10.305,10.305,0,0,1-1.16,2.268c-0.14-.168-0.23-0.252-0.42-0.49l-0.8,1.162a13.3,13.3,0,0,1,1.92,2.072c-0.28.364-.34,0.434-0.81,1.022-0.33.014-.47,0.014-0.56,0.014a3.786,3.786,0,0,1-.61-0.042ZM1196,29.6a38.743,38.743,0,0,1-.45,6.747c-0.16.868-.32,1.036-0.95,1.036a10.8,10.8,0,0,1-1.83-.182,5.868,5.868,0,0,1,.39,1.568c0.5,0.042.94,0.056,1.3,0.056a2.984,2.984,0,0,0,1.79-.364c0.47-.364.72-1.134,0.94-2.744a50.44,50.44,0,0,0,.32-5.179,20.707,20.707,0,0,1,.07-2.436,7.55,7.55,0,0,1-1.14.056h-3.06c0.17-.434.23-0.6,0.41-1.176a4.555,4.555,0,0,1,.18-0.574l-1.57-.28a8.69,8.69,0,0,1-.5,1.764,8.976,8.976,0,0,1-1.65,2.786,4.056,4.056,0,0,1,1.12,1.134,9.9,9.9,0,0,0,1.4-2.212H1196Zm-10.4,4.339a12.741,12.741,0,0,1-.66,3.765l1.25,0.574a15.7,15.7,0,0,0,.69-4.143Zm3.7,0.2a35.41,35.41,0,0,1,.53,3.6l1.27-.308a34.56,34.56,0,0,0-.67-3.569Zm5.46,0.6a16.246,16.246,0,0,0-1.73-3.513l-1.21.672a15.837,15.837,0,0,1,1.59,3.555Z" transform="translate(-1123)"/>
  <path id="こちら_" data-name="こちら&gt;" class="cls-2" d="M1157.37,49.491a3.388,3.388,0,0,1,.41.033,17.428,17.428,0,0,0,2.02.133,11.817,11.817,0,0,0,1.66-.088c-0.51.287-1.05,0.619-1.63,0.983l0.97,0.762a19.745,19.745,0,0,1,2.95-1.834l-0.05-1.238a13.7,13.7,0,0,1-2.92.21,14.444,14.444,0,0,1-3.31-.276Zm0.82,2.5a3.118,3.118,0,0,0-1.43,2.4,1.9,1.9,0,0,0,1.42,1.845,7.846,7.846,0,0,0,2.76.365,18.822,18.822,0,0,0,2.98-.243,4.343,4.343,0,0,1,.49-0.044l-0.12-1.514a11.826,11.826,0,0,1-3.47.464c-1.87,0-2.68-.309-2.68-1.028a2.122,2.122,0,0,1,1.01-1.514Zm8.78-1.691h0.09c0.09,0,.2,0,0.36.011,0.58,0.044,1.08.066,1.66,0.077a24.675,24.675,0,0,1-.92,2.453,8.8,8.8,0,0,1-.52.994l1.33,0.464a1.886,1.886,0,0,1,.81-0.641,5.608,5.608,0,0,1,2.38-.541c1.19,0,1.85.376,1.85,1.061,0,0.884-1.04,1.447-2.64,1.447a8.419,8.419,0,0,1-2.85-.53,6.258,6.258,0,0,1,.11,1.4,10.117,10.117,0,0,0,2.82.387c2.42,0,4-1.061,4-2.7,0-1.4-1.16-2.243-3.11-2.243a5.13,5.13,0,0,0-2.78.718V52.64a14.619,14.619,0,0,0,.87-2.243c1.38-.033,2.36-0.111,3.96-0.287,0.29-.033.38-0.044,0.64-0.055l-0.07-1.337a7.324,7.324,0,0,1-1.41.254c-0.73.088-1.98,0.177-2.82,0.2a10.371,10.371,0,0,0,.27-1.039c0.11-.442.11-0.442,0.17-0.641l-1.48-.122a9.323,9.323,0,0,1-.31,1.823A10.039,10.039,0,0,1,1167,49Zm12.88-1.691a20,20,0,0,0,4.31,1.381l0.45-1.271a16.512,16.512,0,0,1-4.12-1.227Zm-0.89.972a4.968,4.968,0,0,1-.06.641c-0.2,1.3-.38,2.53-0.47,3.215-0.05.42-.05,0.464-0.09,0.663l1.4,0.044a2.582,2.582,0,0,1,.49-0.475,5.041,5.041,0,0,1,2.76-.807c1.17,0,1.86.442,1.86,1.182,0,0.939-1.08,1.591-2.64,1.591a8.891,8.891,0,0,1-2.97-.552,5.321,5.321,0,0,1,.17,1.425,10.113,10.113,0,0,0,2.81.387,4.769,4.769,0,0,0,2.92-.751,2.685,2.685,0,0,0,1.14-2.133c0-1.414-1.24-2.343-3.12-2.343a5.276,5.276,0,0,0-3.35,1.05l-0.02-.022a2.013,2.013,0,0,0,.06-0.32,24.086,24.086,0,0,1,.49-2.718Zm15.78,4.054-4.03,2.184v1.768l6.35-3.615V53.308l-6.35-3.615v1.768Z" transform="translate(-1123)"/>
</svg>
